<svg version="1.1" id="cbh-phone" class="cbh-icon" xmlns="http://www.w3.org/2000/svg" xmlns:xlink="http://www.w3.org/1999/xlink" x="0px" y="0px" viewBox="0 0 50 50"><path class="cbh-bg" d="M39.2,33.5l-0.1-0.4c-0.3-1-1.4-2.1-2.5-2.3l-3.8-1c-1-0.3-2.5,0.1-3.2,0.8l-1.4,1.4c-5-1.3-8.8-5.2-10.2-10.2l1.4-1.4c0.7-0.7,1.1-2.2,0.8-3.2l-1-3.8c-0.3-1-1.3-2.1-2.3-2.5l-0.4-0.1c-1-0.3-2.4,0-3.2,0.8l-2,2c-0.4,0.4-0.6,1.4-0.6,1.4c-0.1,6.5,2.5,12.7,7.1,17.3c4.6,4.6,10.8,7.1,17.3,7.1c0,0,1.1-0.2,1.5-0.6l2-2C39.2,36,39.6,34.5,39.2,33.5L39.2,33.5L39.2,33.5z"></path></svg>
